# xmcd
#
# Track frame offsets:
#	150
#	14444
#	34528
#	53816
#	79396
#	103581
#	116225
#	138637
#	168816
#
# Disc length: 2465 seconds
#
# Revision: 0
# Processed by: cddbd v1.5.2PL0 Copyright (c) Steve Scherf et al.
# Submitted via: EasyCDDAExtractor 16.0.0.1
#
DISCID=73099f09
DTITLE=Scandinavian Music Group - Terminal 2
DYEAR=2014
DGENRE=
TTITLE0=Hiukset
TTITLE1=Balladi 1
TTITLE2=Nuorukainen
TTITLE3=Ei paniikkia
TTITLE4=2051
TTITLE5=Helena
TTITLE6=Las Vegasin raunioilla
TTITLE7=Pieniä teräviä timantteja
TTITLE8=Terminal 2
EXTD=
EXTT0=
EXTT1=
EXTT2=
EXTT3=
EXTT4=
EXTT5=
EXTT6=
EXTT7=
EXTT8=
PLAYORDER=
